<?xml version="1.0" encoding="iso-8859-1"?>
<!-- Generator: Adobe Illustrator 19.0.0, SVG Export Plug-In . SVG Version: 6.00 Build 0)  -->
<svg version="1.1" id="Capa_1" xmlns="http://www.w3.org/2000/svg" xmlns:xlink="http://www.w3.org/1999/xlink" x="0px" y="0px"
	 viewBox="0 0 512 512" style="enable-background:new 0 0 512 512;" xml:space="preserve">
<path style="fill:#3535AA;" d="M380.871,485.908c43.551,0,64.357-22.622,74.141-41.599c10.291-19.959,10.397-39.841,10.397-40.678
	l-22.247,0.015v-0.04c-0.001,0.158-0.199,15.952-8.255,31.142c-10.174,19.185-28.354,28.912-54.036,28.912L380.871,485.908
	L380.871,485.908z"/>
<path style="fill:#C70024;" d="M352.283,152.563l37.483-41.089c4.055,3.698,92.926,87.127,92.676,275.187
	c-0.007,5.166-1.917,10.157-5.352,14.016l-16.527,18.571c-3.791,4.259-10.553,3.905-13.877-0.728l-15.507-21.609
	c-2.821-3.931-4.347-8.649-4.375-13.488c-0.439-77.012-17.505-132.199-33.086-166.615
	C373.995,173.244,352.283,152.563,352.283,152.563z"/>
<path style="fill:#A5001E;" d="M389.765,111.474c3.132,2.857,56.873,53.314,81.05,162.815
	c-5.593,44.373-21.613,83.022-43.988,109.679c-0.005-0.182-0.023-0.362-0.024-0.544c-0.439-77.012-17.505-132.199-33.086-166.615
	c-19.722-43.565-41.363-64.176-41.58-64.379L389.765,111.474z"/>
<path style="fill:#3535AA;" d="M131.129,485.908c-43.551,0-64.357-22.622-74.141-41.599c-10.291-19.959-10.397-39.841-10.397-40.678
	l22.247,0.015v-0.04c0.001,0.158,0.199,15.952,8.255,31.142c10.174,19.185,28.354,28.912,54.037,28.912L131.129,485.908
	L131.129,485.908z"/>
<path style="fill:#C70024;" d="M159.717,152.563l-37.483-41.089c-4.055,3.698-92.926,87.127-92.676,275.187
	c0.007,5.166,1.917,10.157,5.352,14.016l16.528,18.571c3.791,4.259,10.553,3.905,13.877-0.728l15.507-21.609
	c2.821-3.931,4.347-8.649,4.375-13.488c0.439-77.012,17.505-132.199,33.086-166.615
	C138.005,173.244,159.717,152.563,159.717,152.563z"/>
<path style="fill:#A5001E;" d="M122.235,111.474c-3.132,2.857-56.873,53.314-81.05,162.815
	c5.593,44.373,21.613,83.022,43.988,109.679c0.005-0.182,0.023-0.362,0.024-0.544c0.439-77.012,17.505-132.199,33.086-166.615
	c19.722-43.565,41.435-64.245,41.435-64.245L122.235,111.474z"/>
<path style="fill:#D80027;" d="M228.473,132.019V68.398c0-15.18,12.349-27.528,27.527-27.528c15.178,0,27.527,12.349,27.527,27.528
	v63.621h33.37V68.398C316.898,34.904,289.494,7.5,256,7.5l0,0c-33.494,0-60.898,27.404-60.898,60.898v63.621H228.473z"/>
<g>
	<path style="fill:#C70024;" d="M283.528,68.398v63.621h33.37V87.252c0,0-6.786-46.382-60.897-46.382
		C271.179,40.87,283.528,53.219,283.528,68.398z"/>
	<path style="fill:#C70024;" d="M228.473,132.019V68.398c0-15.18,12.349-27.528,27.527-27.528
		c-54.112,0-60.898,46.382-60.898,46.382v44.767H228.473z"/>
</g>
<path style="fill:#D80027;" d="M370.563,504.5H141.437c-21.502,0-38.932-17.43-38.932-38.932V132.019h306.991v333.549
	C409.495,487.07,392.065,504.5,370.563,504.5z"/>
<g>
	<path style="fill:#C70024;" d="M184.258,465.568V132.019h-81.753v333.549c0,21.502,17.43,38.932,38.932,38.932h81.753
		C201.688,504.5,184.258,487.07,184.258,465.568z"/>
	<path style="fill:#C70024;" d="M102.505,367.624c11.359,7.946,25.162,12.626,40.044,12.626h226.902
		c14.883,0,28.686-4.68,40.044-12.626V132.019h-306.99V367.624z"/>
</g>
<path style="fill:#A5001E;" d="M102.505,132.019v235.605c11.358,7.946,25.162,12.626,40.044,12.626h41.708V132.019H102.505z"/>
<path style="fill:#9A4C00;" d="M125.652,427.556c-8.297,0-16.149,1.902-23.147,5.291v32.722c0,21.501,17.431,38.932,38.932,38.932
	h31.786c3.581-7.154,5.608-15.221,5.608-23.766C178.831,451.365,155.022,427.556,125.652,427.556z"/>
<path style="fill:#AA6100;" d="M386.348,427.556c8.297,0,16.149,1.902,23.147,5.291v32.722c0,21.501-17.431,38.932-38.932,38.932
	h-31.786c-3.581-7.154-5.608-15.221-5.608-23.766C333.169,451.365,356.978,427.556,386.348,427.556z"/>
<path style="fill:#FF0C38;" d="M369.451,350.25H142.549c-22.024,0-40.044-18.02-40.044-40.044v-182.91
	c0-22.024,18.02-40.044,40.044-40.044h226.902c22.024,0,40.044,18.02,40.044,40.044v182.91
	C409.495,332.23,391.475,350.25,369.451,350.25z"/>
<path style="fill:#D80027;" d="M179.674,310.206v-182.91c0-22.024,18.02-40.044,40.044-40.044h-77.169
	c-22.024,0-40.044,18.02-40.044,40.044v182.91c0,22.024,18.02,40.044,40.044,40.044h77.169
	C197.694,350.25,179.674,332.23,179.674,310.206z"/>
<path style="fill:#EE8700;" d="M184.258,403.64L184.258,403.64c-11.929,0-21.69-9.76-21.69-21.69V240.44
	c0-11.929,9.76-21.69,21.69-21.69l0,0c11.929,0,21.69,9.76,21.69,21.69v141.51C205.947,393.88,196.187,403.64,184.258,403.64z"/>
<path style="fill:#CC7400;" d="M184.257,381.951v-141.51c0-7.985,4.376-14.992,10.845-18.757c-3.196-1.86-6.9-2.932-10.845-2.932
	l0,0c-11.929,0-21.689,9.76-21.689,21.689v141.51c0,11.929,9.76,21.69,21.689,21.69l0,0c3.945,0,7.649-1.073,10.845-2.932
	C188.633,396.943,184.257,389.935,184.257,381.951z"/>
<path style="fill:#EE8700;" d="M326.74,403.64L326.74,403.64c-11.929,0-21.69-9.76-21.69-21.69V240.44
	c0-11.929,9.76-21.69,21.69-21.69l0,0c11.929,0,21.69,9.76,21.69,21.69v141.51C348.43,393.88,338.669,403.64,326.74,403.64z"/>
<path style="fill:#CC7400;" d="M326.74,381.951v-141.51c0-7.985,4.376-14.992,10.845-18.757c-3.196-1.86-6.9-2.932-10.845-2.932l0,0
	c-11.929,0-21.689,9.76-21.689,21.689v141.51c0,11.929,9.76,21.69,21.689,21.69l0,0c3.945,0,7.649-1.073,10.845-2.932
	C331.116,396.943,326.74,389.935,326.74,381.951z"/>
<circle style="fill:#FFFFFF;" cx="256" cy="173" r="30.425"/>
<path style="fill:#D1E7F8;" d="M256,173.003c0-11.26,6.121-21.083,15.213-26.345c-4.476-2.591-9.669-4.081-15.213-4.081
	c-16.804,0-30.426,13.622-30.426,30.425c0,16.804,13.622,30.426,30.426,30.426c5.544,0,10.736-1.49,15.213-4.081
	C262.121,194.087,256,184.263,256,173.003z"/>
<path d="M229.916,190.382c3.896-1.405,5.916-5.704,4.51-9.6c-0.896-2.486-1.352-5.104-1.352-7.779
	c0-12.641,10.284-22.925,22.926-22.925c12.642,0,22.926,10.284,22.926,22.925c0,12.642-10.284,22.926-22.926,22.926
	c-1.947,0-3.876-0.242-5.732-0.721c-4.016-1.037-8.102,1.381-9.134,5.392c-1.033,4.011,1.38,8.101,5.392,9.134
	c3.078,0.793,6.266,1.195,9.475,1.195c20.912,0,37.926-17.014,37.926-37.926S276.912,135.078,256,135.078
	s-37.926,17.013-37.926,37.925c0,4.416,0.754,8.746,2.242,12.869C221.723,189.769,226.021,191.79,229.916,190.382z"/>
<path d="M489.941,386.672c0.006-4.244-0.035-8.554-0.121-12.811c-0.082-4.09-3.423-7.349-7.495-7.349
	c-0.051,0-0.103,0.001-0.154,0.002c-4.142,0.083-7.431,3.508-7.347,7.649c0.083,4.149,0.123,8.351,0.117,12.487
	c-0.005,3.33-1.231,6.541-3.455,9.039c0,0-17.333,19.058-17.646,19.039c-0.306-0.017-16.569-22.19-16.569-22.19
	c-1.923-2.679-2.949-5.847-2.969-9.158c-0.246-43.164-6.76-87.443-17.308-124.86V158.412
	c21.887,35.173,49.244,95.394,56.237,183.498c0.312,3.927,4.222,7,8.07,6.883c4.14-0.126,7.211-3.94,6.883-8.07
	c-8.659-109.092-47.788-177.302-71.19-209.069c0,0,6.505-51.902-47.544-51.902h-45.054V68.397C324.397,30.683,293.715,0,256,0
	s-68.397,30.683-68.397,68.397v11.354h-45.054c-51.549,0-47.544,51.901-47.544,51.901C67.046,169.585,21.88,251.799,22.059,386.671
	c0.009,7.004,2.584,13.749,7.25,18.992l11.28,12.675c1.408,7.992,4.197,18.671,9.733,29.409
	c7.667,14.869,22.765,33.931,51.426,41.896C109.902,503.037,124.642,512,141.437,512h229.127c16.795,0,31.535-8.963,39.689-22.357
	c28.662-7.966,43.76-27.027,51.426-41.897c5.596-10.853,8.363-21.639,9.733-29.408l11.28-12.675
	C487.357,400.42,489.933,393.675,489.941,386.672z M425.084,401.285l9.217,12.843c-1.008,4.846-2.81,11.053-6.02,17.107
	c-3.014,5.683-6.752,10.324-11.286,14.017V338.27c1.44,14.694,2.22,29.772,2.308,45.197
	C419.341,389.905,421.34,396.066,425.084,401.285z M202.603,68.397C202.603,38.954,226.557,15,256,15s53.397,23.954,53.397,53.397
	v11.354h-18.37V68.398c0-19.314-15.713-35.028-35.027-35.028s-35.027,15.714-35.027,35.028v11.354h-18.37V68.397z M276.027,79.752
	h-40.055V68.398c0-11.044,8.984-20.028,20.027-20.028c11.043,0,20.027,8.984,20.027,20.028L276.027,79.752L276.027,79.752z
	 M110.005,127.296c0-17.944,14.6-32.544,32.544-32.544h226.902c17.944,0,32.544,14.6,32.544,32.544v143.05v39.86
	c0,17.944-14.6,32.544-32.544,32.544H355.93V240.44c0-16.095-13.095-29.189-29.189-29.189s-29.189,13.095-29.189,29.189v102.31
	h-84.104V240.44c0-16.095-13.095-29.189-29.189-29.189s-29.189,13.095-29.189,29.189v102.31h-12.52
	c-17.944,0-32.544-14.6-32.544-32.544v-39.36v-143.55H110.005z M340.93,319.846h-28.379V240.44c0-7.824,6.365-14.189,14.189-14.189
	s14.189,6.365,14.189,14.189v79.406H340.93z M340.93,334.846v28.379h-28.379v-28.379H340.93z M312.551,378.225h28.379v3.726
	c0,7.824-6.365,14.189-14.189,14.189s-14.189-6.365-14.189-14.189v-3.726H312.551z M198.447,319.846h-28.379V240.44
	c0-7.824,6.365-14.189,14.189-14.189s14.189,6.365,14.189,14.189v79.406H198.447z M198.447,334.846v28.379h-28.379v-28.379H198.447z
	 M170.068,378.225h28.379v3.726c0,7.824-6.365,14.189-14.189,14.189s-14.189-6.365-14.189-14.189v-3.726H170.068z M95.005,445.253
	c-4.534-3.693-8.272-8.334-11.286-14.017c-3.209-6.051-5.011-12.259-6.02-17.107l9.217-12.844c3.744-5.219,5.743-11.38,5.781-17.818
	c0.088-15.436,0.865-30.525,2.308-45.229V445.253z M95.005,158.374v100.01C83.78,296.588,77.952,338.631,77.697,383.38
	c-0.02,3.313-1.046,6.48-2.969,9.159c0,0-16.264,22.174-16.569,22.19c-0.322,0.016-17.646-19.039-17.646-19.039
	c-2.224-2.498-3.45-5.709-3.455-9.039C36.91,274.32,68.963,200.103,95.005,158.374z M63.653,440.873
	c-1.945-3.772-3.487-7.546-4.719-11.164c0.003,0,0.007,0,0.01,0c2.487-0.131,4.86-0.813,6.977-1.964
	c1.178,3.402,2.663,6.969,4.545,10.517c5.831,10.995,14.072,19.345,24.538,24.881c0,0-0.367,4.706,0.386,8.311
	C81.611,465.273,70.959,455.041,63.653,440.873z M110.005,465.568v-27.752c4.99-1.825,10.233-2.76,15.647-2.76
	c23.596,0,42.904,18.46,45.523,41.876c0.79,7.065,7.881,6.877,8.09,6.859c4.128-0.34,7.199-3.961,6.859-8.09
	c-1.244-15.13-8.087-29.161-19.266-39.508c-11.244-10.406-25.878-16.138-41.207-16.138c-5.355,0-10.583,0.703-15.647,2.054v-77.291
	c8.513,8.009,19.961,12.931,32.544,12.931h12.52v24.2c0,16.095,13.095,29.189,29.189,29.189s29.189-13.095,29.189-29.189v-24.2
	h84.104v24.2c0,16.095,13.095,29.189,29.189,29.189s29.189-13.095,29.189-29.189v-24.2h13.521c12.583,0,24.031-4.922,32.544-12.931
	v77.291c-5.064-1.351-10.292-2.054-15.647-2.054c-33.458,0-60.679,27.221-60.679,60.679c0,5.573,0.761,11.009,2.228,16.266h-186.46
	C124.105,497,110.005,482.899,110.005,465.568z M370.563,497h-26.889c-1.986-5.179-3.005-10.629-3.005-16.266
	c0-25.188,20.491-45.679,45.679-45.679c5.415,0,10.657,0.935,15.647,2.76v27.752C401.995,482.899,387.895,497,370.563,497z
	 M416.609,471.455c0.245-1.929,0.386-8.311,0.386-8.311c10.466-5.536,18.707-13.886,24.538-24.881
	c1.882-3.549,3.367-7.116,4.545-10.518c2.117,1.151,4.49,1.833,6.978,1.964c0.004,0,0.008,0,0.012,0
	c-1.228,3.607-2.774,7.387-4.721,11.164C441.042,455.041,430.389,465.273,416.609,471.455z"/>
<g>
</g>
<g>
</g>
<g>
</g>
<g>
</g>
<g>
</g>
<g>
</g>
<g>
</g>
<g>
</g>
<g>
</g>
<g>
</g>
<g>
</g>
<g>
</g>
<g>
</g>
<g>
</g>
<g>
</g>
</svg>
